<svg version="1.1" id="_x31_4" xmlns="http://www.w3.org/2000/svg" xmlns:xlink="http://www.w3.org/1999/xlink" x="0px" y="0px" viewBox="0 0 336.649 800" style="enable-background:new 0 0 336.649 800;" xml:space="preserve">
<style type="text/css">
	.st0{fill:#FFFFFF;}
	.st1{fill:#F1F2F2;}
	.st2{fill:#E73D18;}
	.st3{fill:#4C4B4C;}
</style>
<g>
	<path class="st0" d="M107.994,184.868c0,0-75.582,56.078-92.652,63.395c-17.067,7.314-18.484,14.619-7.314,19.508
		c4.873,2.131,8.62,1.053,11.273,24.991c0.916,8.226,14.103,3.589,22.861,22.856c4.572,10.059,9.49,19.703,18.285,8.23
		c21.031-27.432,45.109-104.846,52.427-112.16L107.994,184.868z"></path>
	<path class="st1" d="M74.444,234.721c-25.419,17.399-45.331,32.514-44.476,33.766c0.856,1.249,22.154-11.838,47.573-29.237
		c25.419-17.4,45.331-32.516,44.476-33.768C121.162,204.234,99.863,217.322,74.444,234.721z"></path>
	<path class="st1" d="M80.012,256.725c-16.742,17.147-29.436,31.912-28.352,32.97c1.085,1.058,15.536-11.988,32.278-29.135
		c16.743-17.147,29.433-31.911,28.348-32.97C111.205,226.533,96.751,239.579,80.012,256.725z"></path>
	<g>
		<path class="st0" d="M228.655,187.289c0,0,75.581,56.078,92.652,63.395c17.067,7.313,18.484,14.619,7.314,19.507
			c-4.877,2.131-8.62,1.054-11.274,24.991c-0.916,8.226-14.104,3.59-22.861,22.857c-4.572,10.059-9.491,19.702-18.285,8.23
			c-21.031-27.432-45.11-104.846-52.427-112.16L228.655,187.289z"></path>
		<path class="st1" d="M262.204,237.142c25.419,17.399,45.331,32.516,44.476,33.768c-0.855,1.249-22.154-11.839-47.573-29.239
			c-25.419-17.399-45.332-32.515-44.477-33.766C215.487,206.655,236.785,219.746,262.204,237.142z"></path>
		<path class="st1" d="M256.637,259.147c16.742,17.147,29.436,31.912,28.352,32.969c-1.085,1.058-15.536-11.984-32.278-29.135
			c-16.742-17.146-29.433-31.911-28.348-32.969C225.443,228.954,239.897,241.999,256.637,259.147z"></path>
	</g>
	<path class="st0" d="M170.171,795.587c7.313-9.998,37.788-2.501,45.106,0c7.313,2.505,40.229,12.496,15.844-39.992
		c-16.406-35.322-42.665-104.976-30.475-134.974c51.865-182.581,60.179-312.301,57.448-391.132
		c-2.142-61.997-11.121-92.519-11.121-92.519c7.314-4.999,4.88-52.488-12.194-54.986c-7.313-42.497-40.229-66.24-40.229-66.24
		C198.206,8.248,188.456,2,170.171,2c-18.289,0-28.039,6.248-24.38,13.744c0,0-32.916,23.743-40.234,66.24
		c-17.071,2.498-19.507,49.987-12.193,54.986c0,0-8.979,30.521-11.121,92.519c-2.727,78.831,5.587,208.551,57.449,391.132
		c12.19,29.998-14.069,99.652-30.476,134.974c-24.385,52.488-2.441,42.497,4.877,39.992
		C121.406,793.086,162.853,785.589,170.171,795.587"></path>
	<path class="st2" d="M239.661,279.96c-5.488-12.801-31.091-16.459-31.091-34.744c0-18.289-12.797-38.404-47.542-38.404
		c-27.064,0-25.281-33.279-19.713-54.905c7.389-4.273,14.076-8.949,17.884-12.756c10.973-10.972,53.031-32.916,62.173-27.431
		c9.142,5.488,10.972-16.456,7.317-32.916c-3.658-16.456-25.602-56.688-43.891-62.173c-10.506-3.154-31.086-3.659-34.745,10.972
		c-3.655,14.627-12.797,3.655-21.944,16.456c-9.142,12.801-20.114,40.234-20.114,51.205c0,10.972-3.659,34.745-7.314,42.058
		c-10.972,7.318-5.488,20.115,7.314,47.547c12.801,27.432,1.829,85.95,0,124.35c-1.83,38.403,20.114,126.179,42.058,138.98
		c21.948,12.801,31.09,42.058,47.546,49.376c16.46,7.313,14.63-42.062-1.826-54.86c-16.46-12.801-5.487-18.289,1.826-25.602
		c7.318-7.317,3.659-14.63-7.313-31.09c-10.973-16.456,29.257-32.916,42.058-53.031C245.145,312.876,245.145,292.762,239.661,279.96
		z"></path>
	<path class="st3" d="M100.615,107.663c-1.352,7.462-4.052,13.206-6.038,12.832c-1.986-0.382-2.501-6.737-1.153-14.2
		c1.351-7.469,4.055-13.213,6.041-12.839C101.452,93.839,101.964,100.193,100.615,107.663z"></path>
	<path class="st3" d="M238.504,107.663c1.348,7.462,4.052,13.206,6.042,12.832c1.986-0.382,2.502-6.737,1.149-14.2
		c-1.348-7.469-4.052-13.213-6.042-12.839C237.667,93.839,237.152,100.193,238.504,107.663z"></path>
	<path class="st1" d="M146.989,722.408c-6.282,23.128-10.185,42.204-8.726,42.6c1.463,0.393,7.741-18.033,14.024-41.157
		c6.282-23.132,10.181-42.204,8.722-42.6C159.546,680.854,153.268,699.28,146.989,722.408z"></path>
	<path class="st1" d="M168.834,737.821c0.558,23.957,2.242,43.353,3.757,43.318c1.513-0.033,2.292-19.484,1.734-43.441
		c-0.558-23.963-2.242-43.356-3.754-43.322C169.055,694.411,168.281,713.861,168.834,737.821z"></path>
	<path class="st1" d="M194.536,736.664c6.412,23.09,12.797,41.482,14.256,41.077c1.459-0.405-2.555-19.45-8.963-42.543
		c-6.413-23.093-12.798-41.485-14.257-41.077C184.114,694.525,188.124,713.571,194.536,736.664z"></path>
	<path class="st1" d="M164.683,329.332c0,0,0-64.002,3.659-84.116c3.658-20.119,9.142,14.626,9.142,32.916
		c0,18.285-3.658,102.405-3.658,115.207c0,12.802-1.825,95.092-1.825,106.065c0,10.972-5.488-49.376-7.317-87.78
		C162.853,373.224,164.683,329.332,164.683,329.332z"></path>
	<path class="st1" d="M115.571,417.585c0,0-0.527,13.676,3.681,12.626c4.209-1.054,4.209-5.789,4.209-5.789s0.523,8.943-4.736,9.467
		C113.466,434.419,113.994,421.266,115.571,417.585z"></path>
	<path class="st1" d="M97.912,329.508c0,0-0.527,13.675,3.682,12.626c4.208-1.054,4.208-5.79,4.208-5.79s0.523,8.944-4.736,9.472
		C95.808,346.342,96.334,333.189,97.912,329.508z"></path>
	<path class="st1" d="M106.138,436.485c0,0-0.523,13.68,3.685,12.626c4.208-1.05,4.208-5.789,4.208-5.789s0.523,8.943-4.735,9.47
		C104.033,453.319,104.56,440.17,106.138,436.485z"></path>
	<path class="st1" d="M119.856,460.258c0,0-0.527,13.675,3.682,12.629c4.208-1.053,4.208-5.793,4.208-5.793s0.523,8.944-4.736,9.472
		C117.751,477.092,118.278,463.944,119.856,460.258z"></path>
	<path class="st1" d="M100.654,407.228c0,0-0.527,13.676,3.681,12.626c4.209-1.054,4.209-5.79,4.209-5.79s0.523,8.944-4.736,9.468
		C98.55,424.062,99.076,410.909,100.654,407.228z"></path>
	<path class="st1" d="M102.483,383.455c0,0-0.527,13.676,3.681,12.625c4.209-1.053,4.209-5.789,4.209-5.789s0.523,8.943-4.736,9.467
		C100.379,400.289,100.906,387.137,102.483,383.455z"></path>
	<path class="st1" d="M101.853,354.495c0,0-0.523,13.676,3.685,12.626c4.209-1.055,4.209-5.789,4.209-5.789s0.523,8.943-4.736,9.467
		C99.753,371.33,100.279,358.177,101.853,354.495z"></path>
	<path class="st1" d="M116.197,374.312c0,0-0.527,13.676,3.685,12.626c4.205-1.054,4.205-5.79,4.205-5.79s0.523,8.944-4.736,9.468
		C114.093,391.146,114.62,377.993,116.197,374.312z"></path>
	<path class="st1" d="M123.766,438.906c0,0-0.428,11.113,2.99,10.265c3.422-0.86,3.422-4.709,3.422-4.709s0.424,7.267-3.849,7.692
		C122.055,452.585,122.483,441.9,123.766,438.906z"></path>
	<path class="st2" d="M146.398,689.584c-3.033-4.927,7.314-62.173,1.829-74.974c-5.488-12.802-21.944-71.32-12.801-76.808
		c9.142-5.483,21.944,20.119,32.916,27.433c10.971,7.313,25.602,29.257,16.455,40.228c-9.143,10.973-16.455,42.063-16.455,51.205
		C168.342,665.81,161.027,713.357,146.398,689.584z"></path>
</g>
</svg>
